<svg width="14" height="14" viewBox="0 0 14 14" fill="none" xmlns="http://www.w3.org/2000/svg">
<path d="M7.95243 8.47143L8.50602 6.40542C8.81175 5.2644 8.13462 4.09157 6.99359 3.78583C5.85257 3.48009 4.67974 4.15723 4.374 5.29825L2.99004 10.4633C2.6843 11.6043 3.36144 12.7771 4.50246 13.0829C5.02642 13.2233 5.55709 13.1564 6.00743 12.9325C6.2838 12.7952 6.52991 12.5986 6.72565 12.3546M6.44001 5.85184L5.88642 7.91785C5.58069 9.05887 6.25782 10.2317 7.39885 10.5374C8.53987 10.8432 9.7127 10.166 10.0184 9.02502L11.4024 3.86C11.7081 2.71897 11.031 1.54614 9.88998 1.2404C9.36602 1.10001 8.83535 1.16687 8.38501 1.39073C8.10864 1.52812 7.86253 1.72463 7.66679 1.96866" stroke="#D7CCFF" stroke-linecap="round"/>
</svg>
