<svg width="18" height="19" viewBox="0 0 18 19" fill="none" xmlns="http://www.w3.org/2000/svg">
<path d="M1.5002 9.5L1.00522 9.57071L1.01005 9.60452L1.01943 9.63736L1.5002 9.5ZM6.31767 4.55777L6.1146 5.01467L6.1146 5.01467L6.31767 4.55777ZM6.71591 4.73476L6.91897 4.27785V4.27785L6.71591 4.73476ZM8.22149 5.31457L8.11766 5.80367L8.22149 5.31457ZM11.2845 4.73476L11.0814 4.27785V4.27785L11.2845 4.73476ZM9.7789 5.31457L9.88273 5.80367L9.7789 5.31457ZM11.6702 13.6533L12.0907 13.3829V13.3829L11.6702 13.6533ZM6.22121 13.8229L5.80062 13.5525H5.80062L6.22121 13.8229ZM2.58185 13.2858L3.06261 13.1484L2.58185 13.2858ZM16.0431 12.6996L15.5481 12.6289L16.0431 12.6996ZM16.6679 8.32583L17.1629 8.39654L16.6679 8.32583ZM6.50199 13.3861L6.92258 13.6565H6.92258L6.50199 13.3861ZM11.4984 13.3861L11.0778 13.6565L11.0778 13.6565L11.4984 13.3861ZM11.6827 4.55777L11.8858 5.01467L11.6827 4.55777ZM1.33246 8.32583L0.837483 8.39654L1.33246 8.32583ZM3.7502 8.25C3.47405 8.25 3.2502 8.47386 3.2502 8.75C3.2502 9.02614 3.47405 9.25 3.7502 9.25V8.25ZM6.7502 9.25C7.02634 9.25 7.2502 9.02614 7.2502 8.75C7.2502 8.47386 7.02634 8.25 6.7502 8.25V9.25ZM4.7502 10.25C4.7502 10.5261 4.97405 10.75 5.2502 10.75C5.52634 10.75 5.7502 10.5261 5.7502 10.25H4.7502ZM5.7502 7.25C5.7502 6.97386 5.52634 6.75 5.2502 6.75C4.97405 6.75 4.7502 6.97386 4.7502 7.25H5.7502ZM3.06261 13.1484L1.98096 9.36264L1.01943 9.63736L2.10109 13.4231L3.06261 13.1484ZM1.99517 9.42929L1.82743 8.25512L0.837483 8.39654L1.00522 9.57071L1.99517 9.42929ZM6.0814 13.1157L5.80062 13.5525L6.6418 14.0932L6.92258 13.6565L6.0814 13.1157ZM12.0907 13.3829L11.919 13.1157L11.0778 13.6565L11.2496 13.9237L12.0907 13.3829ZM6.1146 5.01467L6.51284 5.19167L6.91897 4.27785L6.52074 4.10086L6.1146 5.01467ZM11.4876 5.19167L11.8858 5.01467L11.4797 4.10086L11.0814 4.27785L11.4876 5.19167ZM4.86741 4.75C5.29708 4.75 5.72196 4.84017 6.1146 5.01467L6.52074 4.10086C6.00024 3.86953 5.437 3.75 4.86741 3.75V4.75ZM6.51284 5.19167C7.24062 5.51512 7.66955 5.70854 8.11766 5.80367L8.32532 4.82547C8.00378 4.75721 7.68554 4.61855 6.91897 4.27785L6.51284 5.19167ZM11.0814 4.27785C10.3148 4.61855 9.99661 4.75721 9.67508 4.82547L9.88273 5.80367C10.3308 5.70854 10.7598 5.51512 11.4876 5.19167L11.0814 4.27785ZM8.11766 5.80367C8.69953 5.92719 9.30086 5.92719 9.88273 5.80367L9.67508 4.82547C9.23011 4.91992 8.77028 4.91992 8.32532 4.82547L8.11766 5.80367ZM13.679 14.25C13.0365 14.25 12.4382 13.9233 12.0907 13.3829L11.2496 13.9237C11.781 14.7503 12.6963 15.25 13.679 15.25V14.25ZM5.80062 13.5525C5.52116 13.9872 5.03981 14.25 4.52301 14.25V15.25C5.38008 15.25 6.17833 14.8142 6.6418 14.0932L5.80062 13.5525ZM2.10109 13.4231C2.41004 14.5045 3.3984 15.25 4.52301 15.25V14.25C3.84488 14.25 3.24891 13.8005 3.06261 13.1484L2.10109 13.4231ZM15.5481 12.6289C15.4153 13.5591 14.6186 14.25 13.679 14.25V15.25C15.1163 15.25 16.3348 14.1932 16.5381 12.7703L15.5481 12.6289ZM17.1629 8.39654C17.5133 5.94413 15.6103 3.75 13.133 3.75V4.75C15.0017 4.75 16.4372 6.40515 16.173 8.25512L17.1629 8.39654ZM6.92258 13.6565C7.89482 12.1441 10.1056 12.1441 11.0778 13.6565L11.919 13.1157C10.5531 10.991 7.44727 10.991 6.0814 13.1157L6.92258 13.6565ZM11.8858 5.01467C12.2784 4.84017 12.7033 4.75 13.133 4.75V3.75C12.5634 3.75 12.0001 3.86953 11.4797 4.10086L11.8858 5.01467ZM1.82743 8.25512C1.56315 6.40515 2.99865 4.75 4.86741 4.75V3.75C2.3901 3.75 0.487139 5.94413 0.837483 8.39654L1.82743 8.25512ZM5.7502 10.25V7.25H4.7502V10.25H5.7502ZM16.173 8.25512L15.5481 12.6289L16.5381 12.7703L17.1629 8.39654L16.173 8.25512ZM3.7502 9.25H5.2502V8.25H3.7502V9.25ZM5.2502 9.25H6.7502V8.25H5.2502V9.25Z" fill="white"/>
<path d="M13.5 7.25C13.5 7.66421 13.1642 8 12.75 8C12.3358 8 12 7.66421 12 7.25C12 6.83579 12.3358 6.5 12.75 6.5C13.1642 6.5 13.5 6.83579 13.5 7.25Z" fill="white"/>
<path d="M12 8.75C12 9.16421 11.6642 9.5 11.25 9.5C10.8358 9.5 10.5 9.16421 10.5 8.75C10.5 8.33579 10.8358 8 11.25 8C11.6642 8 12 8.33579 12 8.75Z" fill="white"/>
<path d="M15 8.75C15 9.16421 14.6642 9.5 14.25 9.5C13.8358 9.5 13.5 9.16421 13.5 8.75C13.5 8.33579 13.8358 8 14.25 8C14.6642 8 15 8.33579 15 8.75Z" fill="white"/>
<path d="M13.5 10.25C13.5 10.6642 13.1642 11 12.75 11C12.3358 11 12 10.6642 12 10.25C12 9.83579 12.3358 9.5 12.75 9.5C13.1642 9.5 13.5 9.83579 13.5 10.25Z" fill="white"/>
</svg>
